<svg width="142" height="135" viewBox="0 0 142 135" fill="none" xmlns="http://www.w3.org/2000/svg">
<g clip-path="url(#clip0_107_439)">
<path d="M136.889 110.466H5.11112C2.2929 110.466 0 107.893 0 104.729V86.9266H142V104.729C142 107.893 139.707 110.466 136.889 110.466Z" fill="#E6E6E6"/>
<path d="M88.0551 107.488H54.4502V134.431H88.0551V107.488Z" fill="#E6E6E6"/>
<path d="M90.0765 131.028H52.4288V134.431H90.0765V131.028Z" fill="#E6E6E6"/>
<path d="M141.874 94.4423H0V3.93703C0 1.7662 1.57351 0 3.50751 0H138.366C140.3 0 141.874 1.7662 141.874 3.93703V94.4423Z" fill="#3F3D56"/>
<path d="M138.463 4.11234H3.28473V89.4791H138.463V4.11234Z" fill="white"/>
<path d="M29.4635 54.9932C30.4981 54.0336 31.7779 53.855 32.3218 54.5942C32.8658 55.3333 32.4679 56.7102 31.4328 57.6699C31.024 58.0597 30.538 58.3339 30.0155 58.4696L25.586 62.4733L23.9565 60.1001L28.4961 56.4051C28.7135 55.8545 29.0452 55.3704 29.4635 54.9932H29.4635Z" fill="#FFB6B6"/>
<path d="M3.86158 64.0266C3.85933 63.8495 3.86081 62.3051 4.87948 61.3289C6.04965 60.2075 7.70081 60.6614 8.27995 60.8206C9.61776 61.1883 9.72747 61.8325 10.9838 62.4944C13.3343 63.7327 10.3892 63.0988 11.7878 62.7018C12.272 62.5643 19.2367 62.0221 20.9704 60.8244C24.3421 58.4951 26.6395 57.0825 26.6395 57.0825L28.1414 60.4541C28.1414 60.4541 25.9697 63.8435 22.9132 66.3545C19.778 68.9302 18.2104 70.218 15.828 70.7156C15.6229 70.7585 10.5772 71.7255 6.51338 68.3175C5.58643 67.5402 3.88804 66.1159 3.86158 64.0266L3.86158 64.0266Z" fill="#F9A826"/>
<path d="M8.5204 55.452C11.4099 55.452 13.7522 52.8227 13.7522 49.5794C13.7522 46.3361 11.4099 43.7069 8.5204 43.7069C5.63092 43.7069 3.28854 46.3361 3.28854 49.5794C3.28854 52.8227 5.63092 55.452 8.5204 55.452Z" fill="#FFB6B6"/>
<path d="M49.4943 89.0335L44.1062 82.8427L41.3249 86.0993L45.3392 92.0351L49.321 92.5463L49.4943 89.0335Z" fill="#FFB6B6"/>
<path d="M18.7281 77.4244C19.0433 77.4538 20.0448 77.679 21.002 77.0879C21.6553 76.6844 21.9903 76.0846 22.1035 75.8938C23.5074 73.5271 28.8958 69.8365 33.7318 69.6094C34.8269 69.558 35.5478 69.7004 36.203 70.0838C37.1321 70.6274 37.503 71.406 38.6819 73.2301C39.3268 74.2278 40.0403 75.1678 40.693 76.1592C44.514 81.9633 45.9625 82.4189 45.8145 84.2797C45.6502 86.3442 43.6666 88.3029 42.3482 88.0768C41.8082 87.9842 41.5991 87.5628 40.8778 86.7096C38.7626 84.2083 37.8876 84.6704 36.3817 82.7545C34.6235 80.5176 34.8537 78.6629 33.9364 78.5912C33.0858 78.5248 32.7243 80.107 30.9083 82.2089C30.0773 83.1707 29.4856 83.6119 27.6828 85.0157C20.6625 90.4825 20.5505 90.8666 19.1337 91.3026C18.5138 91.4934 14.1143 92.8473 12.5471 90.6927C10.0945 87.3211 15.8885 77.1596 18.7281 77.4244V77.4244Z" fill="#2F2E41"/>
<path d="M47.8471 90.4324C48.2433 90.2327 48.7067 89.9992 48.8558 89.4621C48.9566 89.0987 48.8986 88.6506 48.6901 88.341C48.4495 87.9838 48.0934 87.9367 48.1078 87.8735C48.1297 87.7772 48.9718 87.8149 49.8961 88.1816C50.0705 88.2508 50.8607 88.5749 51.8659 89.4557C52.6712 90.1615 52.5628 90.3029 53.0678 90.7099C54.618 91.9589 56.072 90.9745 56.9108 92.1459C57.2345 92.598 57.3726 93.2399 57.2363 93.7588C56.9627 94.8011 55.6323 95.1598 54.9051 95.345C53.1539 95.7909 51.8284 95.4269 50.4443 95.1651C45.7372 94.2748 43.0925 95.0856 42.7385 93.8616C42.6715 93.6299 42.7804 93.6497 43.1433 91.9496C43.5015 90.2717 43.4898 89.8109 43.7949 89.6765C44.2541 89.4743 44.5624 90.3943 45.7193 90.7092C46.7444 90.9882 47.5903 90.5618 47.8471 90.4324H47.8471Z" fill="#2F2E41"/>
<path d="M39.9152 109.286L38.5539 100.767L34.6232 101.709L34.9753 109.15L38.0144 112.083L39.9152 109.286Z" fill="#FFB6B6"/>
<path d="M20.2654 80.2878C20.5114 80.5108 21.2274 81.3283 22.3152 81.4425C23.0576 81.5205 23.635 81.2353 23.824 81.1488C26.1697 80.0753 32.4747 80.4179 36.5898 83.2781C37.5217 83.9258 38.0469 84.498 38.3973 85.2282C38.8941 86.2636 38.8115 87.1417 38.8745 89.3941C38.9089 90.6262 39.0291 91.8537 39.0732 93.0854C39.3312 100.296 40.3019 101.586 39.2485 103.033C38.0798 104.638 35.4585 105.008 34.4807 103.99C34.0802 103.573 34.118 103.092 33.9479 101.932C33.4492 98.5289 32.4939 98.3597 32.2063 95.8252C31.8706 92.8662 32.9889 91.4765 32.2657 90.8391C31.5951 90.248 30.5045 91.3294 27.9503 91.9239C26.7815 92.196 26.0712 92.1881 23.8772 92.2134C15.3334 92.3119 15.0485 92.5592 13.658 92.027C13.0497 91.7941 8.73199 90.1413 8.51303 87.3707C8.17041 83.035 18.0482 78.2788 20.2654 80.2878H20.2654Z" fill="#2F2E41"/>
<path d="M37.8523 109.405C38.2801 109.49 38.7803 109.588 39.1724 109.238C39.4376 109.001 39.6137 108.593 39.5961 108.206C39.5758 107.759 39.3047 107.495 39.3482 107.452C39.4145 107.386 40.0924 107.948 40.6738 108.834C40.7835 109.001 41.2752 109.768 41.6663 111.13C41.9796 112.221 41.8191 112.27 42.0334 112.925C42.6912 114.936 44.3868 115.038 44.4949 116.536C44.5366 117.114 44.3297 117.732 43.9573 118.076C43.2095 118.766 41.9292 118.224 41.2349 117.919C39.5627 117.184 38.648 116.047 37.6337 114.958C34.1843 111.255 31.5903 110.259 31.9097 109.023C31.9702 108.789 32.0504 108.874 33.2012 107.696C34.337 106.533 34.5578 106.144 34.8774 106.225C35.3586 106.348 35.1535 107.303 35.9532 108.293C36.6619 109.17 37.5751 109.35 37.8523 109.405Z" fill="#2F2E41"/>
<path d="M9.2337 50.7021C9.43738 49.8843 9.18155 49.5863 9.4423 49.2192C9.44231 49.2192 9.54723 49.0714 10.4853 48.6728C10.2085 46.8703 10.4158 46.5655 10.4158 46.5655C10.6546 46.2142 11.1331 46.1293 11.4588 46.1753C12.1477 46.2725 12.2696 46.9714 12.7104 46.9558C13.3193 46.9341 14.0496 45.566 13.8229 44.3801C13.638 43.4129 12.8407 42.6945 12.6409 42.8192C12.4427 42.9428 11.7293 42.3978 11.4588 42.507C11.274 42.5815 10.4044 42.4823 10.2072 42.585C9.99183 42.6972 9.37512 43.3954 9.31616 43.3074C8.90642 42.6961 8.91515 42.4826 8.67743 42.3509C8.25621 42.1174 7.79826 42.5489 7.00862 42.9753C5.38393 43.8525 4.90819 43.3292 4.15774 44.0679C3.77865 44.4411 3.57536 45.1543 3.18426 46.5655C2.63732 48.539 2.36385 49.5258 2.62799 50.468C2.89738 51.4288 3.29408 51.2197 3.8796 52.5753C4.53138 54.0843 4.30674 54.9614 4.92261 55.307C5.3986 55.5741 6.16354 55.4041 6.45235 54.9167C6.94684 54.0823 5.66876 52.9536 6.10469 51.6387C6.37227 50.8315 7.19774 50.2195 7.70396 50.3899C8.27634 50.5826 8.31849 51.7346 8.67744 51.7167C8.98481 51.7015 9.19821 50.8446 9.23371 50.7021H9.2337Z" fill="#2F2E41"/>
<path d="M5.27028 56.3216C6.34091 54.9742 10.7018 56.3688 11.1111 58.507C11.2795 59.3864 10.658 59.7578 10.833 60.7704C11.089 62.2515 12.5384 62.1505 13.6143 63.6582C15.1418 65.7987 13.5682 67.891 15.2831 71.4631C15.6496 72.2264 15.9585 72.8697 16.6043 73.4924C18.0862 74.9211 19.4654 74.4311 20.22 75.7558C20.7843 76.7464 20.5525 77.9673 20.4982 78.2533C20.2755 79.4261 19.6719 79.7119 19.2466 80.6729C18.5389 82.2717 19.3401 83.4455 19.3856 85.3558C19.4426 87.7459 18.311 91.059 16.048 92.146C13.5057 93.3673 10.4394 91.3446 8.95557 89.3363C8.07018 88.1379 7.81317 87.0324 7.42582 85.668C5.6947 79.5699 4.71671 80.1214 3.39287 75.2875C1.87947 69.7614 1.58196 63.2873 3.39287 61.2387C3.63289 60.9672 4.29345 60.3395 4.71401 59.2094C5.27992 57.6887 4.79102 56.9248 5.27028 56.3216L5.27028 56.3216Z" fill="#F9A826"/>
<path d="M21.0898 87.6879C21.9199 88.8717 22.0486 90.312 21.3773 90.9049C20.706 91.4977 19.4892 91.0185 18.659 89.8342C18.3215 89.3662 18.0889 88.8143 17.9804 88.2247L14.5198 83.159L16.308 81.6281L19.8553 86.5689C20.3405 86.8259 20.7638 87.2096 21.0898 87.6879H21.0898Z" fill="#FFB6B6"/>
<path d="M8.41595 61.4568C8.56992 61.4182 9.91724 61.1046 10.9765 62.0248C12.1933 63.0818 12.1343 64.9888 12.1137 65.6577C12.0659 67.2028 11.5265 67.4548 11.2056 68.9704C10.6052 71.8058 11.7486 74.4409 12.3803 75.8968C12.5989 76.4007 13.3014 77.9426 14.6997 79.6033C17.4193 82.833 19.8459 84.5325 19.8459 84.5325L17.239 87.1334C17.239 87.1334 13.0867 85.7128 10.2731 82.8666C7.38692 79.947 2.94855 69.6172 2.02846 67.1009C1.94922 66.8842 3.07161 70.4072 5.21465 65.2462C5.70347 64.069 6.5991 61.9122 8.41596 61.4568H8.41595Z" fill="#F9A826"/>
<path d="M75.1349 59.0338L72.0224 57.3788C73.299 59.3786 74.399 62.5018 74.9879 64.987C75.9851 62.672 77.5924 59.8394 79.1835 58.1474L75.8939 59.0973C77.921 47.9465 85.545 39.9413 94.2757 39.9413L94.3993 39.5385C85.2799 39.5385 77.2045 47.4327 75.1349 59.0338Z" fill="#3F3D56"/>
<path d="M89.4605 76.0241H69.7945C68.9604 76.0241 68.2818 75.2624 68.2818 74.3261C68.2818 73.3898 68.9604 72.6281 69.7945 72.6281H89.4605C90.2946 72.6281 90.9732 73.3898 90.9732 74.3261C90.9732 75.2624 90.2946 76.0241 89.4605 76.0241Z" fill="#F9A826"/>
<path d="M115.628 76.0241H95.9625C95.1284 76.0241 94.4498 75.2624 94.4498 74.3261C94.4498 73.3898 95.1284 72.6281 95.9625 72.6281H115.628C116.463 72.6281 117.141 73.3898 117.141 74.3261C117.141 75.2624 116.463 76.0241 115.628 76.0241Z" fill="#E6E6E6"/>
<path d="M103.986 29.8311H84.8702C84.3883 29.8311 83.9962 29.3909 83.9962 28.85C83.9962 28.309 84.3883 27.8691 84.8702 27.8691H103.986C104.468 27.8691 104.86 28.309 104.86 28.85C104.86 29.3909 104.468 29.8311 103.986 29.8311V29.8311Z" fill="#3F3D56"/>
<path d="M114.244 40.2979H74.6123C74.1303 40.2979 73.7382 39.8577 73.7382 39.3168C73.7382 38.7758 74.1303 38.3358 74.6123 38.3358H114.244C114.726 38.3358 115.118 38.7758 115.118 39.3168C115.118 39.8577 114.726 40.2979 114.244 40.2979Z" fill="#3F3D56"/>
<path d="M39.1019 59.3582C39.0682 59.3582 39.0346 59.3569 39.0008 59.3545C37.0099 59.211 30.1976 58.129 26.1308 50.2362C25.7956 49.5864 25.8617 48.7601 26.2949 48.1806L33.8266 38.108C34.1346 37.6961 34.6104 37.4587 35.0923 37.4653C35.4253 37.4742 36.2138 37.5686 36.367 38.2509C37.2717 42.282 41.0922 47.0218 45.6869 47.6501C46.1526 47.7136 46.5265 48.18 46.687 48.8975C46.8122 49.4561 46.6965 50.0319 46.3695 50.4773L40.336 58.7011C40.0295 59.1187 39.5797 59.3582 39.1019 59.3582V59.3582ZM35.0633 37.8705C34.6953 37.8705 34.3373 38.0555 34.1033 38.3685L26.5717 48.4411C26.2356 48.8906 26.1841 49.5303 26.4433 50.0331C30.4205 57.7519 37.0783 58.8095 39.024 58.9499C39.4213 58.9798 39.8029 58.7898 40.0572 58.4434L46.0907 50.2196C46.3441 49.8746 46.4337 49.4288 46.3368 48.9963C46.2421 48.5729 46.0101 48.1026 45.6432 48.0523C40.8967 47.4034 36.9507 42.5109 36.0168 38.3499C35.9411 38.013 35.4857 37.8814 35.0848 37.8707C35.0776 37.8705 35.0705 37.8705 35.0633 37.8705H35.0633Z" fill="#3F3D56"/>
<path d="M30.695 50.5677L36.125 44.3532C36.4961 43.9284 35.9146 43.2747 35.543 43.7L30.113 49.9145C29.7418 50.3393 30.3233 50.9931 30.695 50.5677Z" fill="#E6E6E6"/>
<path d="M33.9723 52.3185C35.4709 50.8108 36.7732 49.0651 37.8395 47.1496C38.121 46.6439 37.4092 46.1797 37.1289 46.6833C36.0979 48.5352 34.8389 50.2078 33.3903 51.6653C32.9951 52.0629 33.5787 52.7145 33.9723 52.3185H33.9723Z" fill="#E6E6E6"/>
<path d="M36.926 54.415C38.2905 52.7185 39.4519 50.825 40.3663 48.7826C40.6035 48.2528 39.8938 47.7845 39.6556 48.3164C38.7722 50.2897 37.6626 52.1222 36.3441 53.7617C35.9899 54.2021 36.5702 54.8574 36.926 54.415H36.926Z" fill="#E6E6E6"/>
<path d="M34.5997 43.227C37.6231 43.227 40.0742 40.5338 40.0742 37.2115C40.0742 33.8893 37.6231 31.1961 34.5997 31.1961C31.5762 31.1961 29.1252 33.8893 29.1252 37.2115C29.1252 40.5338 31.5762 43.227 34.5997 43.227Z" fill="#F9A826"/>
<path d="M37.4482 40.065C36.6062 37.7414 35.7643 35.4179 34.9223 33.0943C34.806 32.7734 34.4418 32.762 34.3283 33.0943C33.4964 35.5304 32.9527 38.0723 32.6914 40.6641C32.6469 41.1055 33.2633 41.102 33.3074 40.6641C33.4097 39.6499 33.5615 38.6433 33.7565 37.6474C34.4502 37.6882 35.1497 37.6009 35.8192 37.3928C36.1642 38.3448 36.5092 39.2968 36.8541 40.2488C37.0016 40.6556 37.5977 40.4777 37.4482 40.065ZM33.8961 36.9638C34.1037 36.0104 34.3524 35.0683 34.6411 34.1414L35.5853 36.7471C35.0322 36.91 34.4666 36.9825 33.8961 36.9638Z" fill="white"/>
</g>
<defs>
<clipPath id="clip0_107_439">
<rect width="142" height="135" fill="white"/>
</clipPath>
</defs>
</svg>
