<svg width="658" height="551" viewBox="0 0 658 551" fill="none" xmlns="http://www.w3.org/2000/svg">
<g clip-path="url(#clip0_175_2)">
<path d="M605.629 540.389L595.807 540.388L591.135 502.506H605.63L605.629 540.389Z" fill="#9E616A"/>
<path d="M608.134 549.909L576.466 549.908V549.507C576.466 546.238 577.765 543.103 580.076 540.792C582.388 538.48 585.523 537.181 588.792 537.181H588.793L608.135 537.182L608.134 549.909Z" fill="#2F2E41"/>
<path d="M567.977 540.389L558.155 540.388L553.483 502.506H567.979L567.977 540.389Z" fill="#9E616A"/>
<path d="M570.481 549.909L538.813 549.908V549.507C538.813 546.238 540.112 543.103 542.423 540.792C544.735 538.48 547.87 537.181 551.139 537.181H551.14L570.482 537.182L570.481 549.909Z" fill="#2F2E41"/>
<path d="M143.663 548.444V244.177C143.663 242.303 144.408 240.506 145.733 239.181C147.058 237.856 148.855 237.111 150.729 237.111H182.26C184.134 237.111 185.931 237.856 187.256 239.181C188.582 240.506 189.326 242.303 189.326 244.177V549.237L143.663 548.444Z" fill="#3F3D56"/>
<path d="M247.807 549.397V307.464C247.807 305.59 248.551 303.793 249.876 302.468C251.201 301.143 252.998 300.398 254.872 300.398H286.404C288.278 300.398 290.075 301.143 291.4 302.468C292.725 303.793 293.469 305.59 293.469 307.464V548.876L247.807 549.397Z" fill="#3F3D56"/>
<path d="M62.7508 261.961C62.2867 261.96 61.8325 261.826 61.4432 261.573C61.0538 261.321 60.746 260.961 60.5568 260.537C60.3676 260.113 60.3053 259.644 60.3772 259.185C60.4491 258.727 60.6522 258.299 60.9621 257.953L166.392 140.358L270.149 198.622L374.524 18.7766L480.852 106.293C481.096 106.494 481.298 106.74 481.447 107.019C481.596 107.297 481.688 107.603 481.719 107.917C481.749 108.231 481.718 108.548 481.625 108.851C481.533 109.153 481.383 109.434 481.182 109.677C480.982 109.921 480.735 110.123 480.456 110.271C480.177 110.42 479.872 110.512 479.558 110.542C479.243 110.573 478.926 110.541 478.624 110.449C478.322 110.356 478.041 110.205 477.798 110.005L375.84 26.0851L271.928 205.133L167.398 146.436L64.5409 261.161C64.3157 261.413 64.0398 261.615 63.7313 261.752C63.4228 261.89 63.0886 261.961 62.7508 261.961Z" fill="#3F3D56"/>
<path d="M62.3508 281.988C74.739 281.988 84.7817 271.946 84.7817 259.557C84.7817 247.169 74.739 237.126 62.3508 237.126C49.9626 237.126 39.9199 247.169 39.9199 259.557C39.9199 271.946 49.9626 281.988 62.3508 281.988Z" fill="#EECF6A"/>
<path d="M166.494 165.828C178.883 165.828 188.925 155.786 188.925 143.397C188.925 131.009 178.883 120.967 166.494 120.967C154.106 120.967 144.063 131.009 144.063 143.397C144.063 155.786 154.106 165.828 166.494 165.828Z" fill="#CCCCCC"/>
<path d="M270.638 224.309C283.026 224.309 293.069 214.266 293.069 201.878C293.069 189.49 283.026 179.447 270.638 179.447C258.25 179.447 248.207 189.49 248.207 201.878C248.207 214.266 258.25 224.309 270.638 224.309Z" fill="#E6E6E6"/>
<path d="M374.781 44.8617C387.17 44.8617 397.212 34.8191 397.212 22.4309C397.212 10.0426 387.17 0 374.781 0C362.393 0 352.351 10.0426 352.351 22.4309C352.351 34.8191 362.393 44.8617 374.781 44.8617Z" fill="#EECF6A"/>
<path d="M575.057 211.92C587.445 211.92 597.488 201.877 597.488 189.489C597.488 177.101 587.445 167.058 575.057 167.058C562.669 167.058 552.626 177.101 552.626 189.489C552.626 201.877 562.669 211.92 575.057 211.92Z" fill="#EECF6A"/>
<path d="M567.126 364.226C575.521 365.237 596.99 357.579 598.154 369.23C609.204 401.759 608.876 526.452 608.876 526.452L592.053 527.253C592.053 527.253 578.61 428.177 572.253 406.981C569.063 432.744 569.622 531.258 569.622 531.258L554.401 532.059C554.401 532.059 540.748 448.17 540.67 423.548C539.011 405.512 543.08 378.785 541.338 361.35C549.663 363.988 558.425 364.966 567.126 364.226L567.126 364.226Z" fill="#3F3D56"/>
<path d="M456.094 548.319V197.633C456.094 193.135 459.257 189.489 463.159 189.489H494.691C498.593 189.489 501.757 193.135 501.757 197.633V549.237L456.094 548.319Z" fill="#3F3D56"/>
<path d="M538.567 269.856C535.2 262.972 531.087 256.479 526.302 250.494C525.302 249.325 524.392 248.082 523.578 246.776C521.856 243.788 521.343 240.28 520.254 237.011C517.209 227.846 509.615 220.484 507.764 211.007C507.091 207.562 501.407 217.575 502.902 221.846C505.569 229.577 505.914 237.764 509.311 245.23C512.707 252.697 516.697 259.858 519.629 267.493C521.295 271.827 522.625 276.305 525.068 280.311C527.512 284.316 531.325 287.673 535.931 288.274C535.9 285.37 536.341 282.48 537.237 279.718C538.238 276.561 540.017 272.844 538.567 269.856Z" fill="#9E616A"/>
<path d="M588.963 275.047C588.758 269.383 589.641 263.732 591.567 258.4C592.304 256.358 593.169 254.283 593.097 252.112C592.993 250.093 592.032 248.242 591.159 246.416C588.146 240.127 586.031 233.462 583.949 226.813L579.943 214.276C578.637 213.318 586.264 212.986 587.89 215.237C593.209 222.623 597.239 231.107 601.453 239.174C602.528 241.096 603.444 243.103 604.192 245.174C605.222 248.531 605.708 252.03 605.634 255.54C605.634 262.102 604.769 268.639 603.872 275.143C603.303 279.221 602.558 283.659 599.474 286.359C596.269 282.257 593.049 278.252 588.963 275.047Z" fill="#9E616A"/>
<path d="M567.783 268.557C576.964 268.557 584.406 261.114 584.406 251.934C584.406 242.753 576.964 235.311 567.783 235.311C558.602 235.311 551.16 242.753 551.16 251.934C551.16 261.114 558.602 268.557 567.783 268.557Z" fill="#9E616A"/>
<path d="M554.27 235.35C554.083 234.845 554.042 234.298 554.149 233.771C554.257 233.244 554.509 232.758 554.879 232.367C555.294 232.04 555.845 231.918 556.29 231.606C556.923 231.074 557.44 230.419 557.812 229.68C558.947 228.091 560.609 226.956 562.502 226.475C564.395 225.995 566.397 226.2 568.153 227.055C570.9 228.493 572.559 231.372 575.002 233.311C576.242 234.315 577.681 235.061 578.929 236.065C581.428 238.224 583.205 241.098 584.019 244.299C584.83 247.478 585.303 250.734 585.431 254.012C585.561 254.995 585.522 255.994 585.317 256.965C585.064 257.779 584.687 258.549 584.199 259.248C581.687 263.052 578.377 266.508 574.23 268.471C570.082 270.434 565.037 270.754 560.947 268.699C560.535 268.533 560.181 268.25 559.928 267.885C559.695 267.329 559.64 266.716 559.768 266.127C559.99 263.802 559.53 261.462 558.444 259.393C557.683 257.871 556.541 256.562 555.933 254.987C555.367 253.224 555.124 251.373 555.217 249.524C555.145 244.732 555.471 239.961 554.27 235.35Z" fill="#2D293D"/>
<path d="M39.5195 548.795V379.489C39.5195 377.318 42.6831 375.558 46.5853 375.558H78.1167C82.0188 375.558 85.1824 377.32 85.1824 379.489V549.237L39.5195 548.795Z" fill="#3F3D56"/>
<path d="M657.039 551H0.801103C0.588637 551 0.384873 550.916 0.234637 550.765C0.084401 550.615 0 550.411 0 550.199C0 549.986 0.084401 549.783 0.234637 549.632C0.384873 549.482 0.588637 549.398 0.801103 549.398H657.039C657.251 549.398 657.455 549.482 657.605 549.632C657.755 549.783 657.84 549.986 657.84 550.199C657.84 550.411 657.755 550.615 657.605 550.765C657.455 550.916 657.251 551 657.039 551H657.039Z" fill="#E6E6E6"/>
<path d="M351.949 548.199V150.236C351.949 145.132 355.112 140.994 359.014 140.994H390.546C394.448 140.994 397.612 145.132 397.612 150.236V549.237L351.949 548.199Z" fill="#EECF6A"/>
<path d="M502.438 219.795C506.42 219.795 509.648 216.567 509.648 212.585C509.648 208.603 506.42 205.375 502.438 205.375C498.456 205.375 495.228 208.603 495.228 212.585C495.228 216.567 498.456 219.795 502.438 219.795Z" fill="#A0616A"/>
<path d="M582.548 216.591C586.53 216.591 589.758 213.363 589.758 209.381C589.758 205.399 586.53 202.171 582.548 202.171C578.566 202.171 575.338 205.399 575.338 209.381C575.338 213.363 578.566 216.591 582.548 216.591Z" fill="#A0616A"/>
<path d="M600.068 298.632C600.772 297.988 606.507 264.446 606.474 263.69C606.385 259.557 593.776 254.838 591.253 256.48C588.872 258.029 584.726 275.806 582.058 279.043L579.236 274.104H556.805L555.446 276.629C552.502 274.856 549.855 273.221 548.91 272.68C548.586 272.46 548.232 272.286 547.86 272.163C545.529 271.642 543.341 270.614 541.451 269.151C539.609 267.733 531.058 252.883 528.767 253.275C526.179 253.708 517.451 261.254 517.551 268.496C518.65 268.473 532.943 297.054 533.144 298.119C534.241 302.621 537.865 368.28 539.035 371.34C544.423 370.819 540.169 369.89 545.385 371.34C551 372.902 556.929 371.212 562.721 370.587C565.132 370.348 567.555 370.241 569.979 370.266C578.791 370.306 591.368 370.795 599.9 372.982C599.948 367.39 595.037 355.294 593.219 350.015C592.98 348.437 592.988 346.831 593.243 345.256C593.475 343.325 598.166 300.767 600.068 298.632Z" fill="#E6E6E6"/>
</g>
<defs>
<clipPath id="clip0_175_2">
<rect width="657.84" height="551" fill="white"/>
</clipPath>
</defs>
</svg>
