<svg width="163" height="126" viewBox="0 0 163 126" fill="none" xmlns="http://www.w3.org/2000/svg">
<g clip-path="url(#clip0_107_943)">
<path d="M56.4596 119.861C56.3323 119.868 56.2062 119.827 56.0985 119.743C55.9908 119.659 55.9067 119.536 55.8575 119.391C55.8083 119.246 55.7965 119.086 55.8236 118.933C55.8507 118.779 55.9154 118.639 56.009 118.533L56.0516 118.324C56.046 118.307 56.0404 118.291 56.0347 118.274C55.9064 117.901 55.6915 117.582 55.4168 117.359C55.1422 117.135 54.8201 117.017 54.4911 117.019C54.1621 117.02 53.8407 117.141 53.5675 117.367C53.2942 117.593 53.0812 117.913 52.9551 118.288C52.4515 119.783 51.8102 121.281 51.6523 122.862C51.5828 123.561 51.6121 124.269 51.739 124.955C50.556 121.775 49.9417 118.318 49.9377 114.819C49.9375 113.941 49.9771 113.064 50.0563 112.191C50.1218 111.476 50.2126 110.766 50.3288 110.061C50.9629 106.235 52.3242 102.649 54.3011 99.5971C55.2579 98.9537 56.0317 97.9643 56.5181 96.7621C56.6944 96.33 56.8189 95.8687 56.8879 95.3926C56.78 95.41 56.481 93.3841 56.5624 93.2598C56.412 92.9785 56.1428 92.8386 55.9785 92.5641C55.1615 91.1989 54.0359 91.4373 53.4482 93.2925C52.1929 94.0734 52.1808 95.3683 52.951 96.6138C53.4411 97.4062 53.5084 98.4784 53.9384 99.3267C53.8941 99.3965 53.8481 99.4641 53.8039 99.5339C52.9953 100.815 52.2905 102.192 51.6997 103.643C51.8433 102.017 51.6719 100.373 51.1993 98.8448C50.7204 97.4208 49.8228 96.2216 49.0323 94.9906C48.0828 93.512 46.1357 94.1573 45.9684 96.0317C45.9668 96.0498 45.9652 96.0679 45.9637 96.0861C46.0811 96.1677 46.196 96.2544 46.3085 96.346C46.4498 96.4624 46.5592 96.6286 46.6226 96.8229C46.6859 97.0172 46.7001 97.2306 46.6633 97.435C46.6266 97.6395 46.5406 97.8255 46.4166 97.9687C46.2926 98.1118 46.1364 98.2055 45.9685 98.2374L45.9513 98.2407C45.9931 98.7623 46.0671 99.2791 46.1725 99.7869C45.1584 104.62 47.3478 106.381 50.4739 106.46C50.5429 106.504 50.6101 106.547 50.6791 106.589C50.0856 108.662 49.7132 110.822 49.5715 113.013C49.4913 114.306 49.496 115.605 49.5857 116.897L49.5803 116.852C49.3538 115.415 48.732 114.118 47.8198 113.181C46.4649 111.81 44.5508 111.304 43.0892 110.202C42.9338 110.079 42.7532 110.013 42.5686 110.013C42.384 110.012 42.2031 110.077 42.0473 110.199C41.8915 110.321 41.7672 110.495 41.6892 110.701C41.6111 110.907 41.5825 111.137 41.6068 111.362C41.6087 111.378 41.6107 111.394 41.6128 111.41C41.8306 111.52 42.0428 111.646 42.248 111.788C42.3654 111.869 42.4803 111.956 42.5928 112.048C42.734 112.164 42.8435 112.33 42.9068 112.525C42.9701 112.719 42.9843 112.932 42.9476 113.137C42.9108 113.341 42.8248 113.527 42.7009 113.67C42.5769 113.814 42.4207 113.907 42.2528 113.939L42.2356 113.942C42.2232 113.945 42.2126 113.947 42.2002 113.949C42.5725 115.044 43.095 116.053 43.7449 116.93C44.379 121.15 47.1024 121.55 50.0156 120.321H50.0174C50.337 122.033 50.8001 123.699 51.3993 125.293H56.3359C56.3536 125.226 56.3695 125.156 56.3854 125.088C55.9285 125.124 55.4698 125.09 55.0195 124.988C55.3857 124.434 55.752 123.876 56.1183 123.322C56.1264 123.312 56.1341 123.301 56.1413 123.289C56.3271 123.006 56.5146 122.724 56.7004 122.441L56.7005 122.441C56.7104 121.572 56.6295 120.705 56.4598 119.861L56.4596 119.861Z" fill="#F2F2F2"/>
<path d="M116.405 63.7369H3.78486C2.78139 63.7355 1.81936 63.2436 1.1098 62.369C0.400238 61.4945 0.00109823 60.3088 -6.10352e-05 59.072V4.66489C0.00109823 3.42811 0.400238 2.2424 1.1098 1.36787C1.81936 0.493339 2.78139 0.00139828 3.78486 -3.05176e-05H116.405C117.408 0.00139828 118.37 0.493339 119.08 1.36787C119.789 2.2424 120.188 3.42811 120.189 4.66489V59.072C120.188 60.3088 119.789 61.4945 119.08 62.369C118.37 63.2436 117.408 63.7355 116.405 63.7369Z" fill="#F2F2F2"/>
<path d="M90.1392 60.7617H21.6616C16.5587 60.7546 11.6665 58.2531 8.05823 53.8059C4.44997 49.3587 2.42031 43.329 2.41455 37.0397V26.6997C2.4203 20.4104 4.44995 14.3808 8.05822 9.93355C11.6665 5.48632 16.5587 2.98473 21.6616 2.9776H98.5286C103.632 2.98473 108.524 5.48632 112.132 9.93355C115.74 14.3808 117.77 20.4104 117.776 26.6997C117.767 35.7304 114.853 44.3883 109.672 50.7739C104.491 57.1596 97.4663 60.7515 90.1392 60.7617Z" fill="white"/>
<path d="M72.4747 18.5526H27.2102C26.9513 18.5526 26.703 18.4258 26.52 18.2002C26.3369 17.9746 26.2341 17.6686 26.2341 17.3495C26.2341 17.0304 26.3369 16.7244 26.52 16.4988C26.703 16.2731 26.9513 16.1464 27.2102 16.1464H72.4747C72.7336 16.1464 72.9819 16.2731 73.165 16.4988C73.348 16.7244 73.4509 17.0304 73.4509 17.3495C73.4509 17.6686 73.348 17.9746 73.165 18.2002C72.9819 18.4258 72.7336 18.5526 72.4747 18.5526Z" fill="#E6E6E6"/>
<path d="M95.3884 31.3887H27.2102C26.9513 31.3887 26.703 31.262 26.52 31.0363C26.3369 30.8107 26.2341 30.5047 26.2341 30.1856C26.2341 29.8665 26.3369 29.5605 26.52 29.3349C26.703 29.1093 26.9513 28.9825 27.2102 28.9825H95.3884C95.6473 28.9825 95.8956 29.1093 96.0787 29.3349C96.2617 29.5605 96.3646 29.8665 96.3646 30.1856C96.3646 30.5047 96.2617 30.8107 96.0787 31.0363C95.8956 31.262 95.6473 31.3887 95.3884 31.3887Z" fill="#E6E6E6"/>
<path d="M95.3884 44.2248H27.2102C26.9513 44.2248 26.703 44.098 26.52 43.8724C26.3369 43.6468 26.2341 43.3408 26.2341 43.0217C26.2341 42.7026 26.3369 42.3966 26.52 42.171C26.703 41.9454 26.9513 41.8186 27.2102 41.8186H95.3884C95.6473 41.8186 95.8956 41.9454 96.0787 42.171C96.2617 42.3966 96.3646 42.7026 96.3646 43.0217C96.3646 43.3408 96.2617 43.6468 96.0787 43.8724C95.8956 44.098 95.6473 44.2248 95.3884 44.2248Z" fill="#E6E6E6"/>
<path d="M95.3884 44.2248H27.2102C26.9513 44.2248 26.703 44.098 26.52 43.8724C26.3369 43.6468 26.2341 43.3408 26.2341 43.0217C26.2341 42.7026 26.3369 42.3966 26.52 42.171C26.703 41.9454 26.9513 41.8186 27.2102 41.8186H95.3884C95.6473 41.8186 95.8956 41.9454 96.0787 42.171C96.2617 42.3966 96.3646 42.7026 96.3646 43.0217C96.3646 43.3408 96.2617 43.6468 96.0787 43.8724C95.8956 44.098 95.6473 44.2248 95.3884 44.2248Z" fill="#E6E6E6"/>
<path d="M88.7893 22.1457C89.4135 17.953 90.8725 14.2821 93.4374 11.3026C93.5317 11.0832 93.6927 10.9189 93.8851 10.8457C94.0776 10.7725 94.2857 10.7964 94.4639 10.9121L101.108 15.2386C101.286 15.3548 101.419 15.5532 101.479 15.7904C101.538 16.0276 101.519 16.2841 101.425 16.5037L96.7768 27.3469C96.6825 27.5662 96.5215 27.7305 96.3291 27.8037C96.1366 27.8769 95.9285 27.853 95.7503 27.7373L89.1061 23.4108C88.9282 23.2946 88.7949 23.0962 88.7355 22.859C88.6761 22.6218 88.6955 22.3653 88.7893 22.1457Z" fill="#E6E6E6"/>
<path d="M90.7029 19.2025C90.7851 17.0139 92.08 14.6461 93.6911 12.2315C93.7794 12.0261 93.9302 11.8722 94.1104 11.8037C94.2906 11.7351 94.4856 11.7575 94.6524 11.8659L100.363 15.5841C100.529 15.6929 100.654 15.8788 100.71 16.1009C100.765 16.323 100.747 16.5633 100.659 16.769L96.5231 26.4179C96.4348 26.6233 96.284 26.7772 96.1038 26.8457C95.9235 26.9143 95.7286 26.8919 95.5618 26.7835L92.0245 24.4801C91.2821 23.9954 90.726 23.1675 90.4782 22.1781C90.2305 21.1887 90.3113 20.1186 90.7029 19.2025Z" fill="white"/>
<path d="M97.4081 20.5988L92.9491 17.7148C92.8785 17.6687 92.8256 17.5899 92.802 17.4958C92.7783 17.4017 92.7859 17.2999 92.8231 17.2127C92.8602 17.1255 92.9239 17.0599 93.0001 17.0304C93.0764 17.0009 93.159 17.0099 93.2299 17.0553L97.6888 19.9394C97.7595 19.9855 97.8124 20.0642 97.836 20.1583C97.8597 20.2524 97.8521 20.3542 97.8149 20.4414C97.7778 20.5287 97.7141 20.5942 97.6379 20.6237C97.5616 20.6532 97.479 20.6443 97.4081 20.5988Z" fill="#FFCC29"/>
<path d="M94.7 16.5409L93.7191 15.9064C93.6838 15.8838 93.6524 15.8529 93.6269 15.8153C93.6013 15.7777 93.582 15.7343 93.5701 15.6875C93.5582 15.6408 93.5539 15.5915 93.5575 15.5427C93.561 15.4939 93.5724 15.4464 93.5909 15.403C93.6094 15.3596 93.6346 15.3211 93.6652 15.2897C93.6958 15.2584 93.7311 15.2348 93.7691 15.2203C93.8071 15.2058 93.847 15.2007 93.8866 15.2053C93.9262 15.2099 93.9647 15.224 93.9999 15.247L94.9808 15.8815C95.0515 15.9276 95.1044 16.0063 95.128 16.1004C95.1516 16.1945 95.144 16.2963 95.1069 16.3836C95.0698 16.4708 95.0061 16.5363 94.9298 16.5658C94.8536 16.5953 94.771 16.5864 94.7 16.5409Z" fill="#FFCC29"/>
<path d="M96.1736 23.498L91.7146 20.614C91.6439 20.5679 91.5909 20.4892 91.5673 20.395C91.5436 20.3009 91.5511 20.199 91.5883 20.1117C91.6255 20.0245 91.6892 19.9589 91.7655 19.9294C91.8418 19.8999 91.9245 19.909 91.9954 19.9545L96.4544 22.8386C96.525 22.8847 96.5779 22.9634 96.6015 23.0575C96.6252 23.1516 96.6176 23.2534 96.5804 23.3407C96.5433 23.4279 96.4796 23.4934 96.4034 23.5229C96.3271 23.5524 96.2445 23.5435 96.1736 23.498Z" fill="#FFCC29"/>
<path d="M96.7908 22.0484L92.3319 19.1644C92.2966 19.1418 92.2653 19.1108 92.2397 19.0732C92.2141 19.0357 92.1948 18.9922 92.1829 18.9455C92.171 18.8987 92.1667 18.8495 92.1703 18.8007C92.1738 18.7518 92.1852 18.7043 92.2037 18.6609C92.2222 18.6175 92.2474 18.579 92.278 18.5477C92.3086 18.5163 92.3439 18.4927 92.3819 18.4782C92.4199 18.4637 92.4598 18.4586 92.4994 18.4632C92.539 18.4678 92.5775 18.482 92.6127 18.5049L97.0716 21.389C97.1422 21.4351 97.1951 21.5138 97.2188 21.6079C97.2424 21.702 97.2348 21.8038 97.1977 21.8911C97.1605 21.9783 97.0969 22.0438 97.0206 22.0733C96.9444 22.1028 96.8617 22.0939 96.7908 22.0484Z" fill="#FFCC29"/>
<path d="M136.835 95.7285H134.529C134.42 95.7285 134.312 95.755 134.211 95.8065C134.11 95.8579 134.018 95.9333 133.941 96.0283C133.864 96.1234 133.803 96.2362 133.761 96.3604C133.72 96.4846 133.698 96.6177 133.698 96.7521C133.698 97.0236 133.611 97.2839 133.455 97.4759C133.299 97.6679 133.088 97.7757 132.868 97.7757H125.178C125.069 97.7757 124.961 97.7492 124.861 97.6978C124.76 97.6464 124.668 97.571 124.591 97.4759C124.514 97.3809 124.453 97.268 124.411 97.1438C124.369 97.0197 124.348 96.8865 124.348 96.7521L124.196 95.7145L124.206 95.7285L124.196 95.7145L122.802 93.5244C122.756 93.4515 122.698 93.3927 122.631 93.3524C122.563 93.3122 122.489 93.2917 122.415 93.2925H119.801C119.67 93.2927 119.545 93.3567 119.453 93.4704C119.361 93.5842 119.309 93.7384 119.309 93.8992L119.255 95.7145H118.266C118.059 95.7145 117.853 95.7649 117.662 95.8628C117.47 95.9607 117.296 96.1041 117.149 96.285C117.002 96.4659 116.886 96.6806 116.806 96.917C116.727 97.1533 116.686 97.4066 116.686 97.6624V110.349C116.686 110.576 116.722 110.801 116.793 111.011C116.863 111.22 116.967 111.411 117.097 111.572C117.227 111.732 117.382 111.859 117.552 111.946C117.722 112.033 117.904 112.078 118.089 112.078H136.835C137.207 112.077 137.563 111.895 137.826 111.571C138.089 111.247 138.237 110.807 138.237 110.349V97.4567C138.237 97.2297 138.201 97.005 138.13 96.7953C138.06 96.5857 137.957 96.3952 137.826 96.2347C137.696 96.0742 137.542 95.9469 137.372 95.8601C137.201 95.7732 137.019 95.7285 136.835 95.7285Z" fill="#F2F2F2"/>
<path d="M124.197 95.6676H119.309V93.8524C119.309 93.6915 119.361 93.5373 119.453 93.4236C119.545 93.3099 119.67 93.2459 119.801 93.2457H122.415C122.489 93.2449 122.563 93.2654 122.63 93.3056C122.698 93.3458 122.756 93.4047 122.802 93.4776L124.197 95.6676Z" fill="#E6E6E6"/>
<path d="M126.699 110.682H118.538C118.279 110.681 118.032 110.555 117.849 110.33C117.666 110.105 117.564 109.799 117.563 109.481V106.73C117.564 106.411 117.666 106.106 117.849 105.881C118.032 105.656 118.279 105.529 118.538 105.529H128.334C128.592 105.529 128.84 105.656 129.022 105.881C129.205 106.106 129.308 106.411 129.308 106.73V107.467C129.307 108.319 129.032 109.136 128.543 109.739C128.054 110.342 127.391 110.681 126.699 110.682Z" fill="white"/>
<path d="M120.887 107.604H118.873C118.742 107.604 118.616 107.54 118.523 107.426C118.431 107.311 118.379 107.156 118.379 106.995C118.379 106.833 118.431 106.678 118.523 106.564C118.616 106.45 118.742 106.386 118.873 106.386H120.887C121.018 106.386 121.144 106.45 121.237 106.564C121.329 106.678 121.381 106.833 121.381 106.995C121.381 107.156 121.329 107.311 121.237 107.426C121.144 107.54 121.018 107.604 120.887 107.604Z" fill="#F2F2F2"/>
<path d="M127.729 109.525H118.873C118.808 109.525 118.743 109.509 118.683 109.479C118.623 109.448 118.569 109.403 118.523 109.347C118.477 109.29 118.44 109.223 118.415 109.149C118.39 109.075 118.377 108.996 118.377 108.916C118.377 108.835 118.39 108.756 118.415 108.682C118.44 108.608 118.477 108.541 118.523 108.484C118.569 108.428 118.623 108.383 118.683 108.353C118.743 108.322 118.808 108.306 118.873 108.307H127.729C127.86 108.307 127.985 108.371 128.078 108.485C128.171 108.599 128.223 108.754 128.223 108.916C128.223 109.077 128.171 109.232 128.078 109.346C127.985 109.46 127.86 109.525 127.729 109.525H127.729Z" fill="#F2F2F2"/>
<path d="M145.028 109.648H142.722C142.613 109.648 142.505 109.674 142.404 109.726C142.303 109.777 142.212 109.853 142.135 109.948C142.058 110.043 141.996 110.156 141.955 110.28C141.913 110.404 141.891 110.537 141.891 110.672C141.891 110.943 141.804 111.203 141.648 111.395C141.492 111.587 141.281 111.695 141.061 111.695H133.372C133.263 111.695 133.155 111.669 133.054 111.617C132.953 111.566 132.862 111.49 132.784 111.395C132.707 111.3 132.646 111.187 132.604 111.063C132.563 110.939 132.541 110.806 132.541 110.672L132.389 109.634L132.399 109.648L132.389 109.634L130.995 107.444C130.95 107.371 130.891 107.312 130.824 107.272C130.757 107.232 130.683 107.211 130.608 107.212H127.994C127.864 107.212 127.739 107.276 127.646 107.39C127.554 107.504 127.502 107.658 127.502 107.819L127.448 109.634H126.46C126.252 109.634 126.047 109.684 125.855 109.782C125.663 109.88 125.489 110.024 125.342 110.204C125.196 110.385 125.079 110.6 125 110.836C124.92 111.073 124.879 111.326 124.879 111.582V124.269C124.879 124.496 124.916 124.72 124.986 124.93C125.057 125.14 125.16 125.33 125.29 125.491C125.42 125.652 125.575 125.779 125.745 125.866C125.915 125.953 126.098 125.997 126.282 125.997H145.028C145.4 125.997 145.757 125.814 146.019 125.49C146.282 125.166 146.43 124.727 146.431 124.269V111.376C146.431 111.149 146.394 110.924 146.324 110.715C146.253 110.505 146.15 110.315 146.02 110.154C145.89 109.994 145.735 109.866 145.565 109.78C145.395 109.693 145.212 109.648 145.028 109.648Z" fill="#F2F2F2"/>
<path d="M132.39 109.587H127.502V107.772C127.502 107.611 127.554 107.457 127.646 107.343C127.739 107.229 127.864 107.165 127.994 107.165H130.608C130.683 107.164 130.757 107.185 130.824 107.225C130.891 107.265 130.95 107.324 130.995 107.397L132.39 109.587Z" fill="#E6E6E6"/>
<path d="M134.893 124.601H126.731C126.473 124.601 126.225 124.474 126.042 124.249C125.86 124.024 125.757 123.719 125.757 123.4V120.649C125.757 120.331 125.86 120.026 126.042 119.8C126.225 119.575 126.473 119.449 126.731 119.448H136.527C136.785 119.449 137.033 119.575 137.216 119.8C137.398 120.026 137.501 120.331 137.501 120.649V121.386C137.501 122.238 137.226 123.056 136.736 123.658C136.247 124.261 135.584 124.6 134.893 124.601Z" fill="white"/>
<path d="M129.08 121.523H127.066C126.935 121.523 126.809 121.459 126.717 121.345C126.624 121.231 126.572 121.076 126.572 120.914C126.572 120.753 126.624 120.598 126.717 120.484C126.809 120.369 126.935 120.305 127.066 120.305H129.08C129.212 120.305 129.337 120.369 129.43 120.484C129.523 120.598 129.575 120.753 129.575 120.914C129.575 121.076 129.523 121.231 129.43 121.345C129.337 121.459 129.212 121.523 129.08 121.523Z" fill="#F2F2F2"/>
<path d="M135.922 123.444H127.066C127.001 123.444 126.937 123.429 126.877 123.398C126.817 123.367 126.762 123.323 126.716 123.266C126.67 123.21 126.634 123.142 126.609 123.068C126.584 122.994 126.571 122.915 126.571 122.835C126.571 122.755 126.584 122.676 126.609 122.602C126.634 122.528 126.67 122.46 126.716 122.404C126.762 122.347 126.817 122.303 126.877 122.272C126.937 122.241 127.001 122.226 127.066 122.226H135.922C136.053 122.226 136.179 122.29 136.272 122.404C136.364 122.519 136.416 122.673 136.416 122.835C136.416 122.997 136.364 123.151 136.272 123.266C136.179 123.38 136.053 123.444 135.922 123.444H135.922Z" fill="#F2F2F2"/>
<path d="M108.39 121.22L106.485 121.22L105.579 112.167H108.39L108.39 121.22Z" fill="#FFB6B6"/>
<path d="M102.642 124.683C102.643 124.946 102.728 125.198 102.878 125.384C103.029 125.57 103.233 125.676 103.447 125.677H107.032L107.143 125.394L107.65 124.104L107.846 125.394L107.89 125.677H109.242L109.223 125.392L108.862 120.062L108.39 120.027L106.352 119.878L105.852 119.84V121.431C105.472 121.929 102.49 123.812 102.642 124.683Z" fill="#2F2E41"/>
<path d="M139.921 103.092L139 105.147L132.132 101.749L133.49 98.7161L139.921 103.092Z" fill="#FFB6B6"/>
<path d="M139.603 110.968C139.79 111.094 140.01 111.124 140.215 111.051C140.42 110.978 140.594 110.809 140.698 110.58L142.431 106.711L142.283 106.454L141.612 105.284L142.623 105.695L142.845 105.785L143.499 104.326L143.286 104.209L139.327 102.023L139.073 102.514L137.983 104.642L137.714 105.164L138.844 105.933C139.014 106.583 138.911 110.71 139.603 110.968Z" fill="#2F2E41"/>
<path d="M111.576 61.5498L118.772 65.3155C118.772 65.3155 121.074 71.3732 119.482 72.2412V88.2561L135.918 99.9797L130.964 110.179C130.964 110.179 124.605 108.155 124.672 106.306C124.738 104.458 125.471 103.727 123.288 103.49C121.104 103.252 119.868 103.45 119.927 101.801C119.986 100.152 112.216 91.5762 112.216 91.5762L111.576 61.5498Z" fill="#2F2E41"/>
<path d="M113.3 64.6244L111.476 62.098C111.476 62.098 107.378 70.3913 107.393 72.0948C107.408 73.7982 103.915 82.5828 103.915 82.5828L99.5823 113.932C99.5823 113.932 107.938 116.38 108.582 116.448C109.225 116.515 110.31 116.933 109.628 115.346C108.946 113.759 109.628 113.759 109.628 113.759L110.047 89.6232L113.3 73.0224V64.6244Z" fill="#2F2E41"/>
<path d="M112.343 40.3398L115.837 39.3063L117.858 42.3607C118.78 43.4299 119.467 44.7694 119.856 46.2544C120.245 47.7393 120.322 49.3215 120.081 50.8534L118.213 62.7318C118.213 62.7318 121.567 66.5213 121.148 68.5882C120.468 71.9406 112.968 68.9802 111.678 69.2148C110.387 69.4494 108.71 66.8752 108.43 65.4064C108.151 63.9375 109.291 60.4121 109.688 60.4926C110.085 60.5731 108.592 53.2 108.592 53.2C108.592 53.2 108.71 48.2631 110.107 46.8852C110.964 46.0249 111.662 44.9483 112.153 43.7278L112.343 40.3398Z" fill="#FFCC29"/>
<path d="M97.1745 21.7161C97.1772 22.0056 97.2309 22.291 97.3319 22.5525C97.4329 22.814 97.5788 23.0453 97.7594 23.2305C97.9401 23.4156 98.1512 23.5502 98.3783 23.6249C98.6053 23.6996 98.8427 23.7127 99.0742 23.6631L103.472 32.0263L105.648 31.0958L100.366 21.2098C100.269 20.7357 100.035 20.3218 99.707 20.0464C99.3793 19.7711 98.981 19.6535 98.5877 19.7159C98.1943 19.7783 97.8332 20.0164 97.5727 20.3851C97.3123 20.7537 97.1706 21.2273 97.1745 21.7161H97.1745Z" fill="#FFB6B6"/>
<path d="M114.811 50.8711C114.811 50.8711 116.467 46.5005 115.207 44.558C113.947 42.6154 113.027 40.6406 112.322 40.1057C111.617 39.5708 108.807 33.3769 108.099 33.192C107.391 33.007 107.941 32.0029 106.952 31.4639C105.963 30.925 105.68 30.921 105.683 30.5711C105.686 30.2212 103.272 26.0195 103.272 26.0195L100.79 27.9182L106.852 43.2038L114.811 50.8711Z" fill="#FFCC29"/>
<path d="M99.164 91.7717C95.9891 86.5669 94.1541 80.7465 94.0939 74.1108C93.9916 73.7532 94.0086 73.3602 94.1411 73.018C94.2736 72.6758 94.5109 72.4124 94.8008 72.2855L105.623 67.5662C105.913 67.4401 106.232 67.4611 106.509 67.6244C106.787 67.7877 107.001 68.0801 107.104 68.4374L112.174 86.0983C112.276 86.4559 112.259 86.8489 112.126 87.1911C111.994 87.5333 111.757 87.7967 111.467 87.9236L100.645 92.6429C100.355 92.769 100.036 92.7481 99.7584 92.5848C99.4807 92.4214 99.267 92.129 99.164 91.7717Z" fill="#E6E6E6"/>
<path d="M98.4628 86.0754C96.5533 83.6958 95.7359 79.4517 95.2033 74.7214C95.1075 74.3865 95.1234 74.0184 95.2475 73.6979C95.3716 73.3775 95.5937 73.1307 95.8653 73.0119L105.166 68.9561C105.437 68.838 105.736 68.8576 105.996 69.0105C106.256 69.1635 106.456 69.4373 106.553 69.772L111.064 85.4878C111.16 85.8227 111.144 86.1907 111.02 86.5112C110.896 86.8317 110.674 87.0784 110.402 87.1972L104.641 89.7098C103.431 90.2357 102.1 90.1484 100.942 89.4671C99.7839 88.7858 98.8922 87.566 98.4628 86.0754Z" fill="white"/>
<path d="M106.677 78.2381L99.4324 81.4254C99.3171 81.4761 99.1902 81.4683 99.0796 81.4037C98.9689 81.3391 98.8837 81.2229 98.8425 81.0808C98.8014 80.9388 98.8077 80.7824 98.8601 80.646C98.9126 80.5097 99.0068 80.4046 99.1221 80.3539L106.367 77.1666C106.424 77.1415 106.484 77.1305 106.545 77.1342C106.606 77.1379 106.665 77.1563 106.72 77.1883C106.774 77.2203 106.824 77.2652 106.864 77.3206C106.905 77.376 106.936 77.4407 106.957 77.5111C106.977 77.5815 106.986 77.6561 106.983 77.7307C106.98 77.8053 106.965 77.8784 106.939 77.946C106.913 78.0135 106.877 78.074 106.832 78.1241C106.787 78.1743 106.734 78.213 106.677 78.2381Z" fill="#FFCC29"/>
<path d="M100.175 77.7861L98.5815 78.4873C98.4663 78.5376 98.3396 78.5296 98.2292 78.4649C98.1187 78.4003 98.0337 78.2843 97.9926 78.1424C97.9515 78.0005 97.9577 77.8443 98.01 77.7081C98.0622 77.5719 98.1561 77.4667 98.2712 77.4158L99.865 76.7146C99.9802 76.6642 100.107 76.6723 100.217 76.7369C100.328 76.8016 100.413 76.9176 100.454 77.0595C100.495 77.2014 100.489 77.3576 100.437 77.4938C100.384 77.63 100.29 77.7351 100.175 77.7861Z" fill="#FFCC29"/>
<path d="M108.041 82.9487L100.797 86.136C100.74 86.1611 100.679 86.1721 100.618 86.1684C100.558 86.1647 100.499 86.1463 100.444 86.1143C100.389 86.0823 100.34 86.0374 100.299 85.982C100.259 85.9266 100.227 85.8619 100.207 85.7915C100.186 85.7211 100.177 85.6465 100.181 85.5719C100.184 85.4973 100.198 85.4242 100.224 85.3566C100.25 85.2891 100.287 85.2286 100.332 85.1785C100.377 85.1283 100.429 85.0896 100.486 85.0645L107.731 81.8772C107.788 81.8521 107.849 81.8411 107.909 81.8448C107.97 81.8485 108.029 81.8669 108.084 81.8989C108.139 81.9309 108.188 81.9759 108.228 82.0313C108.269 82.0867 108.301 82.1514 108.321 82.2218C108.341 82.2921 108.35 82.3667 108.347 82.4413C108.344 82.5159 108.329 82.5891 108.303 82.6566C108.277 82.7241 108.241 82.7847 108.196 82.8348C108.151 82.8849 108.099 82.9236 108.041 82.9487Z" fill="#FFCC29"/>
<path d="M107.359 80.5934L100.115 83.7807C100.057 83.8058 99.9969 83.8168 99.9364 83.8131C99.8758 83.8094 99.8165 83.791 99.7617 83.759C99.7069 83.727 99.6578 83.682 99.6171 83.6266C99.5765 83.5712 99.545 83.5065 99.5247 83.4362C99.5043 83.3658 99.4954 83.2912 99.4984 83.2166C99.5014 83.142 99.5163 83.0688 99.5423 83.0013C99.5682 82.9338 99.6047 82.8733 99.6497 82.8232C99.6946 82.773 99.7471 82.7343 99.8042 82.7092L107.049 79.5219C107.164 79.4712 107.291 79.479 107.402 79.5436C107.512 79.6082 107.598 79.7243 107.639 79.8664C107.68 80.0085 107.674 80.1649 107.621 80.3013C107.569 80.4376 107.475 80.5427 107.359 80.5934Z" fill="#FFCC29"/>
<path d="M112.767 38.7823C114.839 38.7823 116.518 36.7125 116.518 34.1591C116.518 31.6058 114.839 29.5359 112.767 29.5359C110.695 29.5359 109.016 31.6058 109.016 34.1591C109.016 36.7125 110.695 38.7823 112.767 38.7823Z" fill="#FFB6B6"/>
<path d="M108.823 33.5558C109.022 33.7194 109.259 33.7975 109.498 33.7781C109.553 33.4242 109.562 33.0618 109.524 32.7045C109.666 33.0251 109.773 33.3677 109.842 33.7231C110.509 33.5436 110.48 33.299 111.167 33.427C111.356 33.476 111.535 33.5725 111.692 33.7102C111.849 33.848 111.982 34.0242 112.081 34.2279C112.181 34.4316 112.246 34.6583 112.271 34.894C112.297 35.1298 112.282 35.3695 112.23 35.5982C112.375 35.2052 112.98 35.3838 113.082 35.8335C113.188 36.3067 112.954 36.785 112.73 37.1911C111.93 38.6429 114 41.3188 113.199 42.7705L113.088 42.9347C113.788 42.4858 114.45 41.9527 115.065 41.3432C114.96 40.7697 114.941 40.1772 115.011 39.5956C115.098 40.0747 115.311 40.5051 115.616 40.8199C117.881 38.631 120.606 35.4798 120.105 34.715L118.58 31.4028C116.978 27.9234 113.114 26.5257 110.72 29.2274C110.657 29.2994 110.515 29.2517 110.452 29.3275C109.764 29.5472 108.884 29.9452 108.434 30.6228C107.987 31.3016 108.235 33.0666 108.823 33.5558Z" fill="#2F2E41"/>
<path d="M111.757 69.3585C108.705 67.3529 106.31 64.5254 104.785 60.609C104.644 60.4317 104.566 60.1927 104.568 59.9445C104.57 59.6963 104.652 59.4591 104.795 59.285L110.156 52.7955C110.3 52.6217 110.494 52.5254 110.696 52.5277C110.897 52.5299 111.089 52.6305 111.231 52.8074L118.203 61.557C118.344 61.7343 118.422 61.9732 118.42 62.2214C118.418 62.4696 118.336 62.7068 118.193 62.8809L112.832 69.3705C112.688 69.5442 112.494 69.6405 112.292 69.6383C112.091 69.636 111.899 69.5354 111.757 69.3585Z" fill="#E6E6E6"/>
<path d="M110.063 66.218C108.396 65.4573 106.958 63.2179 105.58 60.593C105.448 60.427 105.375 60.2032 105.377 59.9707C105.379 59.7383 105.455 59.5162 105.59 59.3531L110.197 53.7759C110.332 53.6132 110.513 53.523 110.702 53.5251C110.891 53.5272 111.071 53.6214 111.203 53.787L117.407 61.573C117.539 61.739 117.612 61.9628 117.611 62.1953C117.609 62.4277 117.533 62.6498 117.398 62.8129L114.544 66.2679C113.944 66.9926 113.135 67.3943 112.295 67.385C111.455 67.3756 110.652 66.956 110.063 66.218Z" fill="white"/>
<path d="M113.177 58.7675L109.594 63.1286C109.566 63.163 109.533 63.1902 109.496 63.2086C109.459 63.2271 109.42 63.2364 109.38 63.2361C109.34 63.2358 109.301 63.2259 109.265 63.2069C109.228 63.1879 109.195 63.1602 109.167 63.1254C109.139 63.0906 109.117 63.0494 109.102 63.004C109.087 62.9587 109.08 62.9102 109.08 62.8613C109.08 62.8124 109.088 62.764 109.104 62.719C109.119 62.6739 109.142 62.633 109.17 62.5987L112.753 58.2376C112.781 58.2032 112.814 58.176 112.851 58.1576C112.888 58.1391 112.927 58.1298 112.967 58.1301C113.007 58.1304 113.046 58.1403 113.082 58.1593C113.119 58.1783 113.152 58.206 113.18 58.2408C113.208 58.2756 113.23 58.3168 113.245 58.3621C113.26 58.4075 113.268 58.456 113.267 58.5049C113.267 58.5538 113.259 58.6022 113.243 58.6472C113.228 58.6923 113.206 58.7332 113.177 58.7675Z" fill="#FFCC29"/>
<path d="M109.218 60.7161L108.43 61.6755C108.373 61.7449 108.296 61.7836 108.216 61.7829C108.136 61.7823 108.059 61.7425 108.003 61.6722C107.947 61.602 107.915 61.507 107.916 61.4082C107.916 61.3095 107.948 61.215 108.005 61.1456L108.794 60.1862C108.822 60.1517 108.855 60.1244 108.892 60.1059C108.929 60.0873 108.968 60.0779 109.008 60.0782C109.048 60.0784 109.087 60.0883 109.124 60.1073C109.16 60.1263 109.194 60.154 109.222 60.1889C109.249 60.2237 109.272 60.265 109.286 60.3104C109.301 60.3558 109.309 60.4043 109.309 60.4533C109.308 60.5023 109.3 60.5507 109.285 60.5958C109.269 60.6409 109.247 60.6818 109.218 60.7161Z" fill="#FFCC29"/>
<path d="M115.044 61.0972L111.461 65.4583C111.433 65.4926 111.399 65.5199 111.363 65.5383C111.326 65.5568 111.287 65.5661 111.247 65.5658C111.207 65.5655 111.168 65.5556 111.131 65.5366C111.095 65.5176 111.062 65.4899 111.034 65.4551C111.006 65.4203 110.984 65.379 110.969 65.3337C110.954 65.2884 110.946 65.2399 110.947 65.191C110.947 65.1421 110.955 65.0937 110.97 65.0486C110.986 65.0036 111.008 64.9627 111.036 64.9283L114.619 60.5673C114.648 60.5329 114.681 60.5057 114.718 60.4873C114.755 60.4688 114.794 60.4595 114.834 60.4598C114.873 60.46 114.913 60.47 114.949 60.489C114.986 60.508 115.019 60.5357 115.047 60.5705C115.075 60.6053 115.097 60.6465 115.112 60.6918C115.127 60.7371 115.134 60.7856 115.134 60.8345C115.134 60.8835 115.126 60.9318 115.11 60.9769C115.095 61.022 115.072 61.0629 115.044 61.0972Z" fill="#FFCC29"/>
<path d="M114.111 59.9324L110.528 64.2934C110.499 64.3279 110.466 64.3552 110.429 64.3738C110.392 64.3923 110.353 64.4017 110.313 64.4015C110.274 64.4012 110.234 64.3913 110.198 64.3723C110.161 64.3533 110.128 64.3256 110.1 64.2907C110.072 64.2559 110.05 64.2146 110.035 64.1692C110.02 64.1239 110.012 64.0753 110.013 64.0263C110.013 63.9773 110.021 63.9289 110.037 63.8838C110.052 63.8387 110.075 63.7978 110.103 63.7635L113.686 59.4025C113.743 59.3331 113.82 59.2945 113.9 59.2951C113.98 59.2958 114.057 59.3356 114.113 59.4059C114.169 59.4761 114.201 59.571 114.2 59.6698C114.2 59.7685 114.168 59.863 114.111 59.9324V59.9324Z" fill="#FFCC29"/>
<path d="M106.43 78.4205C106.385 78.1361 106.391 77.8432 106.448 77.5621C106.504 77.281 106.609 77.0183 106.756 76.7922C106.903 76.5662 107.088 76.3821 107.298 76.2528C107.509 76.1235 107.739 76.0521 107.974 76.0434L110.922 66.7631L113.205 67.137L109.638 78.1277C109.621 78.6161 109.459 79.0795 109.182 79.4302C108.906 79.781 108.535 79.9946 108.139 80.0307C107.744 80.0668 107.351 79.9228 107.036 79.626C106.721 79.3292 106.505 78.9003 106.43 78.4205Z" fill="#FFB6B6"/>
<path d="M118.964 45.4988C118.964 45.4988 121.297 49.3713 120.379 51.5857C119.461 53.8002 118.881 55.9624 118.277 56.6607C117.674 57.3589 115.929 64.1214 115.265 64.4777C114.601 64.8339 115.304 65.6817 114.423 66.454C113.542 67.2264 113.264 67.3005 113.324 67.6424C113.384 67.9844 111.703 72.6975 111.703 72.6975L108.963 71.4508L114.798 46.4345L118.964 45.4988Z" fill="#FFCC29"/>
<path d="M162.736 126L15.9744 125.811C15.9046 125.811 15.8377 125.776 15.7884 125.715C15.7392 125.655 15.7115 125.572 15.7115 125.486C15.7115 125.4 15.7392 125.317 15.7884 125.257C15.8377 125.196 15.9046 125.161 15.9744 125.161L162.736 125.35C162.771 125.35 162.805 125.358 162.837 125.375C162.87 125.391 162.899 125.415 162.923 125.445C162.948 125.475 162.967 125.511 162.981 125.55C162.994 125.59 163.001 125.632 163.001 125.675C163.001 125.718 162.994 125.76 162.981 125.8C162.967 125.839 162.948 125.875 162.923 125.905C162.899 125.935 162.87 125.959 162.837 125.976C162.805 125.992 162.771 126 162.736 126Z" fill="#CACACA"/>
<path d="M55.1358 54.4172C53.3979 50.7317 52.5695 46.7736 52.946 42.4543C52.9019 42.2122 52.9376 41.9583 53.0451 41.7485C53.1527 41.5386 53.3234 41.39 53.5198 41.3351L60.8501 39.2968C61.0466 39.2424 61.2526 39.2864 61.4228 39.419C61.5931 39.5516 61.7137 39.762 61.7582 40.004L63.948 51.9668C63.9921 52.209 63.9565 52.4629 63.8489 52.6727C63.7413 52.8825 63.5706 53.0312 63.3742 53.0861L56.0439 55.1244C55.8474 55.1787 55.6415 55.1348 55.4712 55.0022C55.301 54.8696 55.1803 54.6592 55.1358 54.4172Z" fill="#E6E6E6"/>
<path d="M55.0367 50.6475C53.9444 48.919 53.6789 46.0824 53.6289 42.9567C53.5876 42.7299 53.621 42.4922 53.7217 42.2957C53.8225 42.0991 53.9824 41.9599 54.1663 41.9085L60.4661 40.1568C60.6501 40.1059 60.843 40.147 61.0025 40.2712C61.1619 40.3953 61.2749 40.5924 61.3166 40.8191L63.2652 51.4644C63.3065 51.6912 63.2731 51.929 63.1723 52.1255C63.0716 52.322 62.9117 52.4612 62.7278 52.5126L58.8252 53.5978C58.0055 53.8245 57.1462 53.6413 56.436 53.0882C55.7258 52.5351 55.2225 51.6573 55.0367 50.6475Z" fill="white"/>
<path d="M57.4871 44.7714C57.6155 44.5889 57.7883 44.4625 57.9797 44.4111C58.1711 44.3596 58.371 44.3859 58.5493 44.486C58.7276 44.6027 58.8703 44.7876 58.956 45.0129C59.0417 45.2381 59.0658 45.4916 59.0246 45.7352C58.9555 46.2982 58.7169 46.8108 58.6952 47.3873C58.6757 47.6399 58.7115 47.8942 58.7988 48.1239C58.8861 48.3537 59.0217 48.5504 59.1916 48.6936C59.4517 48.8884 59.7195 48.4062 59.4581 48.2105C59.028 47.8884 59.1725 47.1807 59.2973 46.698C59.4531 46.0952 59.6154 45.4807 59.4227 44.8596C59.3374 44.5996 59.2005 44.3701 59.0247 44.1921C58.8488 44.014 58.6395 43.8932 58.416 43.8406C58.1924 43.7881 57.9617 43.8054 57.745 43.8911C57.5283 43.9768 57.3325 44.1281 57.1755 44.3311C56.9703 44.6039 57.2793 45.0476 57.4871 44.7714Z" fill="#FFCC29"/>
<path d="M59.5748 50.3772C59.8366 50.3772 60.0488 50.1157 60.0488 49.793C60.0488 49.4704 59.8366 49.2088 59.5748 49.2088C59.313 49.2088 59.1008 49.4704 59.1008 49.793C59.1008 50.1157 59.313 50.3772 59.5748 50.3772Z" fill="#FFCC29"/>
<path d="M13.237 28.974C11.4991 25.2886 10.6707 21.3305 11.0472 17.0112C11.0031 16.769 11.0388 16.5152 11.1463 16.3053C11.2539 16.0955 11.4246 15.9468 11.621 15.8919L18.9513 13.8537C19.1478 13.7993 19.3538 13.8433 19.524 13.9758C19.6943 14.1084 19.8149 14.3188 19.8594 14.5609L22.0492 26.5237C22.0933 26.7659 22.0577 27.0198 21.9501 27.2296C21.8425 27.4394 21.6718 27.5881 21.4754 27.643L14.1451 29.6813C13.9486 29.7356 13.7427 29.6917 13.5724 29.5591C13.4021 29.4265 13.2815 29.2161 13.237 28.974Z" fill="#E6E6E6"/>
<path d="M13.1378 25.2044C12.0456 23.4759 11.78 20.6392 11.7301 17.5136C11.6888 17.2868 11.7221 17.0491 11.8229 16.8525C11.9236 16.656 12.0835 16.5168 12.2674 16.4654L18.5672 14.7137C18.7512 14.6628 18.9441 14.7039 19.1036 14.8281C19.263 14.9522 19.376 15.1493 19.4177 15.376L21.3663 26.0213C21.4076 26.2481 21.3742 26.4858 21.2735 26.6823C21.1727 26.8789 21.0129 27.0181 20.8289 27.0695L16.9263 28.1547C16.1066 28.3814 15.2474 28.1981 14.5371 27.6451C13.8269 27.092 13.3237 26.2142 13.1378 25.2044Z" fill="white"/>
<path d="M16.4306 26.0158C16.7975 26.0158 17.0949 25.6492 17.0949 25.197C17.0949 24.7448 16.7975 24.3782 16.4306 24.3782C16.0637 24.3782 15.7662 24.7448 15.7662 25.197C15.7662 25.6492 16.0637 26.0158 16.4306 26.0158Z" fill="#FFCC29"/>
<path d="M17.2245 17.4205C16.9688 17.051 16.5009 17.1097 16.1139 17.2006C15.7117 17.2727 15.3191 17.4104 14.9464 17.6103C14.7604 17.7115 14.5924 17.8571 14.4522 18.0387C14.312 18.2204 14.2023 18.4344 14.1296 18.6685C13.975 19.2529 14.1433 19.888 14.3453 20.45C14.7341 21.531 15.2502 22.5353 15.877 23.4306L16.1937 23.6113C16.6863 22.8378 17.0484 21.9505 17.2587 21.0019C17.4689 20.0532 17.523 19.0623 17.4178 18.0874C17.4058 17.8471 17.3388 17.6158 17.2245 17.4205Z" fill="#FFCC29"/>
</g>
<defs>
<clipPath id="clip0_107_943">
<rect width="163" height="126" fill="white"/>
</clipPath>
</defs>
</svg>
