<svg width="148" height="119" viewBox="0 0 148 119" fill="none" xmlns="http://www.w3.org/2000/svg">
<g clip-path="url(#clip0_107_970)">
<path d="M98.0932 119L98.062 118.997L49.2156 114.459L4.79781 118.586C3.63808 118.693 2.48306 118.336 1.58683 117.592C0.690606 116.848 0.126589 115.779 0.0188606 114.619C0.00632188 114.484 4.75355e-05 114.349 3.66406e-05 114.213V8.5744C-0.00444666 7.47873 0.402645 6.42132 1.14071 5.61152C1.87878 4.80173 2.89401 4.29858 3.9854 4.20172L49.2156 0L49.2468 0.00296744L98.0932 4.54052L142.511 0.414348C143.671 0.306612 144.826 0.66399 145.722 1.40786C146.618 2.15173 147.182 3.22116 147.29 4.38089C147.302 4.51591 147.309 4.65129 147.309 4.78704V110.426C147.313 111.521 146.906 112.579 146.168 113.388C145.43 114.198 144.415 114.701 143.323 114.798L98.0932 119Z" fill="#3F3D56"/>
<path d="M68.0908 39.081C58.6354 32.1947 48.6868 25.6648 38.5237 19.6737L38.0136 19.373V39.6925H68.9303L68.0908 39.081ZM38.6892 39.0168V20.557C48.3575 26.2762 57.8247 32.4818 66.8528 39.0169L38.6892 39.0168ZM115.944 80.8398C111.855 76.5884 107.659 72.4339 103.359 68.3762C102.173 67.2564 100.98 66.1455 99.7794 65.0437C92.4539 58.3144 84.8875 51.9146 77.0801 45.8441L76.9888 45.7731H38.0136V81.4124H116.494L115.944 80.8398ZM38.6892 80.7368V46.4487H76.7574C84.2856 52.3047 91.61 58.4884 98.7305 64.9998C99.9669 66.1297 101.195 67.2687 102.414 68.4167C106.678 72.4232 110.841 76.5299 114.905 80.7368H38.6892ZM115.944 80.8398C111.855 76.5884 107.659 72.4339 103.359 68.3762C102.173 67.2564 100.98 66.1455 99.7794 65.0437C92.4539 58.3144 84.8875 51.9146 77.0801 45.8441L76.9888 45.7731H38.0136V81.4124H116.494L115.944 80.8398ZM38.6892 80.7368V46.4487H76.7574C84.2856 52.3047 91.61 58.4884 98.7305 64.9998C99.9669 66.1297 101.195 67.2687 102.414 68.4167C106.678 72.4232 110.841 76.5299 114.905 80.7368H38.6892ZM68.0908 39.081C58.6354 32.1947 48.6868 25.6648 38.5237 19.6737L38.0136 19.373V39.6925H68.9303L68.0908 39.081ZM38.6892 39.0168V20.557C48.3575 26.2762 57.8247 32.4818 66.8528 39.0169L38.6892 39.0168ZM68.0908 39.081C58.6354 32.1947 48.6868 25.6648 38.5237 19.6737L38.0136 19.373V39.6925H68.9303L68.0908 39.081ZM38.6892 39.0168V20.557C48.3575 26.2762 57.8247 32.4818 66.8528 39.0169L38.6892 39.0168ZM115.944 80.8398C111.855 76.5884 107.659 72.4339 103.359 68.3762C102.173 67.2564 100.98 66.1455 99.7794 65.0437C92.4539 58.3144 84.8875 51.9146 77.0801 45.8441L76.9888 45.7731H38.0136V81.4124H116.494L115.944 80.8398ZM38.6892 80.7368V46.4487H76.7574C84.2856 52.3047 91.61 58.4884 98.7305 64.9998C99.9669 66.1297 101.195 67.2687 102.414 68.4167C106.678 72.4232 110.841 76.5299 114.905 80.7368H38.6892ZM4.57349 87.493V88.1687H31.2574V97.9653H4.57349V98.6409H31.933V87.493H4.57349ZM38.0136 104.722V111.567L38.6893 111.505V105.397H142.736V104.722L38.0136 104.722ZM142.736 88.1687V87.493H38.0136V98.6409H142.736V97.9653H38.6892V88.1687L142.736 88.1687ZM79.6407 39.0168C66.6791 29.0183 52.9907 19.9991 38.6892 12.034V5.1933L38.0136 5.25579V12.1495L38.5339 12.7215C52.7771 20.6649 66.41 29.6563 79.3197 39.6215L79.4109 39.6925H142.736V39.0168L79.6407 39.0168ZM31.2573 39.0168H4.57349V39.6925H31.933V5.81994L31.2574 5.88243L31.2573 39.0168ZM142.736 45.7731H87.0658L87.7938 46.371C94.648 52.0108 101.378 57.9924 107.983 64.3157C108.922 65.2143 109.858 66.1202 110.79 67.0334C115.432 71.5685 119.983 76.2518 124.443 81.083L125 81.4124H142.736V80.7368H125.043C120.631 75.9533 116.123 71.3084 111.52 66.802C110.6 65.9 109.676 65.0043 108.748 64.1147C102.286 57.9141 95.6856 52.0255 88.9474 46.4487H142.736V45.7731ZM4.57349 104.722V105.397H31.2574V112.194L31.933 112.131V104.722H4.57349ZM4.57349 45.7731V46.4487H31.2574V80.7368H4.57349V81.4124H31.933V45.7731H4.57349ZM68.0908 39.081C58.6354 32.1947 48.6868 25.6648 38.5237 19.6737L38.0136 19.373V39.6925H68.9303L68.0908 39.081ZM38.6892 39.0168V20.557C48.3575 26.2762 57.8247 32.4818 66.8528 39.0169L38.6892 39.0168ZM115.944 80.8398C111.855 76.5884 107.659 72.4339 103.359 68.3762C102.173 67.2564 100.98 66.1455 99.7794 65.0437C92.4539 58.3144 84.8875 51.9146 77.0801 45.8441L76.9888 45.7731H38.0136V81.4124H116.494L115.944 80.8398ZM38.6892 80.7368V46.4487H76.7574C84.2856 52.3047 91.61 58.4884 98.7305 64.9998C99.9669 66.1297 101.195 67.2687 102.414 68.4167C106.678 72.4232 110.841 76.5299 114.905 80.7368H38.6892ZM68.0908 39.081C58.6354 32.1947 48.6868 25.6648 38.5237 19.6737L38.0136 19.373V39.6925H68.9303L68.0908 39.081ZM38.6892 39.0168V20.557C48.3575 26.2762 57.8247 32.4818 66.8528 39.0169L38.6892 39.0168ZM115.944 80.8398C111.855 76.5884 107.659 72.4339 103.359 68.3762C102.173 67.2564 100.98 66.1455 99.7794 65.0437C92.4539 58.3144 84.8875 51.9146 77.0801 45.8441L76.9888 45.7731H38.0136V81.4124H116.494L115.944 80.8398ZM38.6892 80.7368V46.4487H76.7574C84.2856 52.3047 91.61 58.4884 98.7305 64.9998C99.9669 66.1297 101.195 67.2687 102.414 68.4167C106.678 72.4232 110.841 76.5299 114.905 80.7368H38.6892Z" fill="white"/>
<path d="M75.4477 44.4604C75.4477 53.0159 59.9566 72.075 59.9566 72.075C59.9566 72.075 44.4656 53.0159 44.4656 44.4604C44.4656 40.3519 46.0977 36.4117 49.0028 33.5066C51.9079 30.6015 55.8482 28.9694 59.9566 28.9694C64.0651 28.9694 68.0054 30.6015 70.9105 33.5066C73.8156 36.4117 75.4477 40.3519 75.4477 44.4604Z" fill="#FFCC29"/>
<path d="M67.0386 43.787C67.0386 45.1876 66.6233 46.5567 65.8452 47.7213C65.067 48.8859 63.961 49.7935 62.667 50.3295C61.373 50.8655 59.9492 51.0058 58.5755 50.7325C57.2017 50.4593 55.9399 49.7848 54.9495 48.7944C53.9591 47.804 53.2847 46.5422 53.0114 45.1685C52.7382 43.7948 52.8784 42.3709 53.4144 41.0769C53.9504 39.7829 54.8581 38.6769 56.0227 37.8988C57.1872 37.1207 58.5564 36.7053 59.957 36.7053C60.8871 36.7049 61.8082 36.8878 62.6675 37.2435C63.5269 37.5992 64.3078 38.1209 64.9654 38.7785C65.6231 39.4362 66.1447 40.2171 66.5005 41.0764C66.8562 41.9358 67.0391 42.8569 67.0386 43.787Z" fill="white"/>
<path d="M59.9569 83.2555C62.2631 83.2555 64.1327 81.3859 64.1327 79.0796C64.1327 76.7733 62.2631 74.9037 59.9569 74.9037C57.6506 74.9037 55.781 76.7733 55.781 79.0796C55.781 81.3859 57.6506 83.2555 59.9569 83.2555Z" fill="#FFCC29"/>
<path d="M99.9671 26.6576C103.377 26.6576 106.141 23.8934 106.141 20.4836C106.141 17.0738 103.377 14.3096 99.9671 14.3096C96.5573 14.3096 93.7931 17.0738 93.7931 20.4836C93.7931 23.8934 96.5573 26.6576 99.9671 26.6576Z" fill="#FF6584"/>
<path d="M119.328 39.5096H89.0402C89.0023 39.51 88.9644 39.507 88.927 39.5006L103.252 14.6881C103.339 14.5336 103.466 14.405 103.619 14.3156C103.773 14.2261 103.947 14.179 104.125 14.179C104.302 14.179 104.477 14.2261 104.63 14.3156C104.783 14.405 104.91 14.5336 104.998 14.6881L114.611 31.3392L115.072 32.136L119.328 39.5096Z" fill="white"/>
<path opacity="0.2" d="M119.328 39.5095H108.987L114.064 32.1359L114.429 31.6047L114.612 31.3392L115.072 32.1359L119.328 39.5095Z" fill="black"/>
<path d="M136.192 39.5095H109.996L115.072 32.136L115.437 31.6048L122.052 21.9956C122.486 21.3658 123.529 21.3266 124.039 21.8768C124.073 21.9143 124.105 21.954 124.134 21.9956L136.192 39.5095Z" fill="white"/>
<path d="M138.136 74.4868C139.862 74.4868 141.261 73.0878 141.261 71.362C141.261 69.6362 139.862 68.2372 138.136 68.2372C136.41 68.2372 135.011 69.6362 135.011 71.362C135.011 73.0878 136.41 74.4868 138.136 74.4868Z" fill="white"/>
<path d="M138.437 80.774H137.797L138.089 70.8914L138.437 80.774Z" fill="#CBCBCB"/>
<path d="M138.145 72.7644L138.832 71.8137L138.136 72.9998L138.061 72.868L138.145 72.7644Z" fill="#CBCBCB"/>
<path d="M138.07 73.7243L137.383 72.7738L138.08 73.9596L138.155 73.8279L138.07 73.7243Z" fill="#CBCBCB"/>
<path d="M129.251 71.4883C131.8 71.4883 133.866 69.4221 133.866 66.8733C133.866 64.3245 131.8 62.2583 129.251 62.2583C126.702 62.2583 124.636 64.3245 124.636 66.8733C124.636 69.4221 126.702 71.4883 129.251 71.4883Z" fill="white"/>
<path d="M129.696 80.7741H128.751L129.182 66.1783L129.696 80.7741Z" fill="#CBCBCB"/>
<path d="M129.265 68.9444L130.279 67.5406L129.251 69.2921L129.14 69.0974L129.265 68.9444Z" fill="#CBCBCB"/>
<path d="M129.154 70.3623L128.139 68.9585L129.168 70.7098L129.279 70.5153L129.154 70.3623Z" fill="#CBCBCB"/>
<path d="M22.1051 74.4868C23.8309 74.4868 25.2299 73.0878 25.2299 71.362C25.2299 69.6362 23.8309 68.2372 22.1051 68.2372C20.3794 68.2372 18.9803 69.6362 18.9803 71.362C18.9803 73.0878 20.3794 74.4868 22.1051 74.4868Z" fill="white"/>
<path d="M22.4062 80.774H21.7662L22.0579 70.8914L22.4062 80.774Z" fill="#CBCBCB"/>
<path d="M22.1144 72.7644L22.8016 71.8137L22.105 72.9998L22.0298 72.868L22.1144 72.7644Z" fill="#CBCBCB"/>
<path d="M22.0392 73.7243L21.3521 72.7738L22.0486 73.9596L22.1238 73.8279L22.0392 73.7243Z" fill="#CBCBCB"/>
<path d="M13.2201 71.4883C15.7689 71.4883 17.8351 69.4221 17.8351 66.8733C17.8351 64.3245 15.7689 62.2583 13.2201 62.2583C10.6713 62.2583 8.6051 64.3245 8.6051 66.8733C8.6051 69.4221 10.6713 71.4883 13.2201 71.4883Z" fill="white"/>
<path d="M13.6648 80.7741H12.7196L13.1506 66.1783L13.6648 80.7741Z" fill="#CBCBCB"/>
<path d="M13.2339 68.9444L14.2486 67.5406L13.22 69.2921L13.1089 69.0974L13.2339 68.9444Z" fill="#CBCBCB"/>
<path d="M13.1229 70.3623L12.108 68.9585L13.1368 70.7098L13.2479 70.5153L13.1229 70.3623Z" fill="#CBCBCB"/>
</g>
<defs>
<clipPath id="clip0_107_970">
<rect width="147.309" height="119" fill="white"/>
</clipPath>
</defs>
</svg>
